<?xml version="1.0" encoding="UTF-8" standalone="no"?>
<svg
   width="24"
   height="24"
   enable-background="new 0 0 24 24"
   version="1.1"
   viewBox="0 0 24 24"
   id="svg8"
   xmlns="http://www.w3.org/2000/svg"
   xmlns:svg="http://www.w3.org/2000/svg"
   xmlns:rdf="http://www.w3.org/1999/02/22-rdf-syntax-ns#"
   xmlns:cc="http://creativecommons.org/ns#"
   xmlns:dc="http://purl.org/dc/elements/1.1/">
  <metadata
     id="metadata14">
    <rdf:RDF>
      <cc:Work
         rdf:about="">
        <dc:format>image/svg+xml</dc:format>
        <dc:type
           rdf:resource="http://purl.org/dc/dcmitype/StillImage" />
      </cc:Work>
    </rdf:RDF>
  </metadata>
  <defs
     id="defs12" />
  <rect
     width="24"
     height="24"
     fill="#f4a460"
     id="rect2"
     style="fill:#8a00f4;fill-opacity:1" />
  <g
     fill="#b22222"
     id="g6"
     style="display:none">
    <path
       d="M 2,2 V 22 H 22 V 2 Z m 9.86,14.96 c 0.76,-0.24 1.4,-1.04 1.53,-1.63 0.13,-0.56 -0.1,-1.05 -0.2,-1.6 -0.08,-0.46 -0.07,-0.85 0.08,-1.28 0.54,1.21 2.15,1.64 1.98,3.18 -0.19,1.7 -2.11,2.38 -3.39,1.33 z M 20,20 H 18 V 18 H 15.98 C 16.61,17.16 17,16.13 17,15 17,13.11 15.91,12.15 15.15,11.63 12.2,9.61 13,7 13,7 c -6.73,3.57 -6.02,7.47 -6,8 0.03,0.96 0.49,2.07 1.23,3 H 6 v 2 H 4 V 4 h 16 z"
       fill="#b22222"
       id="path4" />
  </g>
  <path
     id="path1"
     style="fill:#380077;fill-opacity:1;stroke-width:2.93166"
     d="M 9.8203125 6.3613281 C 6.5622686 6.3613281 3.9122454 8.9143039 3.7558594 12.128906 L 2.0878906 14.353516 C 1.8706876 14.640224 2.0793422 15.048828 2.4355469 15.048828 L 3.7402344 15.048828 L 3.7402344 17.65625 C 3.7402344 18.611943 4.52087 19.394531 5.4765625 19.394531 L 6.3457031 19.394531 L 6.3457031 22 L 12.427734 22 L 12.427734 17.931641 C 14.478128 16.958572 15.902344 14.867342 15.902344 12.443359 C 15.902344 9.0810597 13.182611 6.3613281 9.8203125 6.3613281 z M 10.265625 8.5292969 L 10.84375 8.5292969 L 10.84375 9.1074219 L 11.421875 9.1074219 L 11.421875 8.5292969 L 12 8.5292969 L 12 9.1074219 L 12.578125 9.1074219 C 12.896214 9.1074219 13.15625 9.3694114 13.15625 9.6875 L 13.15625 10.265625 L 13.734375 10.265625 L 13.734375 10.84375 L 13.15625 10.84375 L 13.15625 11.421875 L 13.734375 11.421875 L 13.734375 12 L 13.15625 12 L 13.15625 12.578125 C 13.15625 12.896215 12.896214 13.15625 12.578125 13.15625 L 12 13.15625 L 12 13.734375 L 11.421875 13.734375 L 11.421875 13.15625 L 10.84375 13.15625 L 10.84375 13.734375 L 10.265625 13.734375 L 10.265625 13.15625 L 9.6875 13.15625 C 9.3694115 13.15625 9.1074219 12.896215 9.1074219 12.578125 L 9.1074219 12 L 8.5292969 12 L 8.5292969 11.421875 L 9.1074219 11.421875 L 9.1074219 10.84375 L 8.5292969 10.84375 L 8.5292969 10.265625 L 9.1074219 10.265625 L 9.1074219 9.6875 C 9.1074219 9.3694114 9.3694115 9.1074219 9.6875 9.1074219 L 10.265625 9.1074219 L 10.265625 8.5292969 z M 9.6875 9.6875 L 9.6875 12.578125 L 12.578125 12.578125 L 12.578125 9.6875 L 9.6875 9.6875 z M 10.265625 10.265625 L 12 10.265625 L 12 12 L 10.265625 12 L 10.265625 10.265625 z M 10.84375 10.84375 L 10.84375 11.421875 L 11.421875 11.421875 L 11.421875 10.84375 L 10.84375 10.84375 z " />
  <text
     xml:space="preserve"
     style="font-size:6.66667px;fill:#380077;fill-opacity:1;stroke:none;stroke-opacity:1"
     x="15.72721"
     y="6.6679711"
     id="text1"><tspan
       id="tspan1"
       x="15.72721"
       y="6.6679711"
       style="font-style:normal;font-variant:normal;font-weight:bold;font-stretch:normal;font-size:6.66667px;font-family:'Segoe UI';-inkscape-font-specification:'Segoe UI'">AI</tspan></text>
</svg>
