<?xml version="1.0" encoding="UTF-8"?>
<svg width="24" height="24" enable-background="new 0 0 24 24" version="1.1" viewBox="0 0 24 24" xmlns="http://www.w3.org/2000/svg" xmlns:cc="http://creativecommons.org/ns#" xmlns:dc="http://purl.org/dc/elements/1.1/" xmlns:osb="http://www.openswatchbook.org/uri/2009/osb" xmlns:rdf="http://www.w3.org/1999/02/22-rdf-syntax-ns#">
 <metadata>
  <rdf:RDF>
   <cc:Work rdf:about="">
    <dc:format>image/svg+xml</dc:format>
    <dc:type rdf:resource="http://purl.org/dc/dcmitype/StillImage"/>
    <dc:title/>
   </cc:Work>
  </rdf:RDF>
 </metadata>
 <rect width="24" height="24" fill="#008000"/>
 <g transform="matrix(.52632 0 0 .52632 2 2)" fill="#ffa500">
  <g fill="#ffa500">
   <g fill="#ffa500">
    <polygon points="18.083 1.858 19 0 19.917 1.858 21.967 2.156 20.482 3.602 20.834 5.643 19 4.679 17.167 5.643 17.517 3.602 16.034 2.156"/>
    <path d="m33 32.578-6.322-6.322h5.266l-6.489-6.488h4.331l-5.407-5.407h2.888l-8.267-8.264-8.265 8.264h2.888l-5.407 5.407h4.331l-6.488 6.488h5.264l-6.323 6.322h12.301l-0.978 5.422h5.354l-0.978-5.422zm-9.098-5.162 0.205 0.416 0.457 0.066-0.332 0.324 0.08 0.455-0.41-0.216-0.41 0.216 0.078-0.455-0.332-0.324 0.459-0.066zm-3.172-14.012 0.459-0.931 0.459 0.931 1.027 0.149-0.742 0.725 0.176 1.022-0.92-0.483-0.918 0.483 0.176-1.022-0.743-0.725zm-1.949-3.633 0.205-0.416 0.205 0.416 0.458 0.066-0.332 0.324 0.079 0.456-0.41-0.216-0.41 0.216 0.078-0.456-0.331-0.324zm-2.385 6.066 0.31-0.627 0.31 0.627 0.692 0.101-0.5 0.488 0.118 0.689-0.619-0.325-0.619 0.325 0.118-0.689-0.5-0.488zm2.515 13.747-2.003-1.053-2.003 1.053 0.382-2.229-1.618-1.582 2.239-0.324 1-2.029 1.002 2.029 2.238 0.324-1.621 1.582zm0.51-9.811 1.463-0.213 0.653-1.326 0.654 1.326 1.463 0.213-1.059 1.031 0.25 1.457-1.309-0.688-1.309 0.688 0.25-1.457z"/>
   </g>
  </g>
 </g>
</svg>
