<?xml version="1.0" encoding="UTF-8"?>
<svg width="24" height="24" enable-background="new 0 0 24 24" version="1.1" viewBox="0 0 24 24" xmlns="http://www.w3.org/2000/svg">
 <rect width="24" height="24" fill="#f4a460"/>
 <g fill="#b22222">
  <path d="m2 2v20h20v-20zm9.86 14.96c0.76-0.24 1.4-1.04 1.53-1.63 0.13-0.56-0.1-1.05-0.2-1.6-0.08-0.46-0.07-0.85 0.08-1.28 0.54 1.21 2.15 1.64 1.98 3.18-0.19 1.7-2.11 2.38-3.39 1.33zm8.14 3.04h-2v-2h-2.02c0.63-0.84 1.02-1.87 1.02-3 0-1.89-1.09-2.85-1.85-3.37-2.95-2.02-2.15-4.63-2.15-4.63-6.73 3.57-6.02 7.47-6 8 0.03 0.96 0.49 2.07 1.23 3h-2.23v2h-2v-16h16z" fill="#b22222"/>
 </g>
</svg>
