<?xml version="1.0" encoding="UTF-8"?>
<svg width="18px" height="18px" version="1.1" viewBox="0 0 24 24" xmlns="http://www.w3.org/2000/svg">
 <rect width="24" height="24" fill="#00fa9a"/>
 <path d="m12 3c-4.97 0-9 4.03-9 9s4.03 9 9 9c0.83 0 1.5-0.67 1.5-1.5 0-0.39-0.15-0.74-0.39-1.01-0.23-0.26-0.38-0.61-0.38-0.99 0-0.83 0.67-1.5 1.5-1.5h1.77c2.76 0 5-2.24 5-5 0-4.42-4.03-8-9-8zm-5.5 9c-0.83 0-1.5-0.67-1.5-1.5s0.67-1.5 1.5-1.5 1.5 0.67 1.5 1.5-0.67 1.5-1.5 1.5zm3-4c-0.83 0-1.5-0.67-1.5-1.5s0.67-1.5 1.5-1.5 1.5 0.67 1.5 1.5-0.67 1.5-1.5 1.5zm5 0c-0.83 0-1.5-0.67-1.5-1.5s0.67-1.5 1.5-1.5 1.5 0.67 1.5 1.5-0.67 1.5-1.5 1.5zm3 4c-0.83 0-1.5-0.67-1.5-1.5s0.67-1.5 1.5-1.5 1.5 0.67 1.5 1.5-0.67 1.5-1.5 1.5z" fill="#2f4f4f"/>
</svg>
