<?xml version="1.0" encoding="UTF-8"?>
<svg width="24" height="24" enable-background="new 0 0 24 24" version="1.1" viewBox="0 0 24 24" xmlns="http://www.w3.org/2000/svg">
 <rect width="24" height="24" fill="#800080"/>
 <g transform="matrix(1.001 0 0 1.001 -.001475 -.02693)" fill="#ff69b4">
  <g transform="matrix(.03902 0 0 .03902 1.999 2.025)" fill="#ff69b4">
   <path d="m345.9 281.9c19.15-8.872 38.22-15.34 56.95-19.31 5.403-1.143 8.856-6.45 7.713-11.85s-6.444-8.857-11.85-7.713c-21.68 4.588-43.7 12.26-65.73 22.86-12.3-14.67-26.39-30.02-41.58-45.21-16.15-16.15-32.46-31.05-47.96-43.88 13.41-16.96 24.36-35.95 32.64-56.73 12.91-32.4 19.46-69.42 19.46-110 0-5.523-4.478-10-10-10s-10 4.477-10 10c0 62.57-16.04 114.4-47.73 154.3-5.979-4.561-11.78-8.753-17.31-12.49-29.64-19.99-47.29-24.67-57.16-15.16-0.07 0.065-0.143 0.129-0.211 0.196-0.01 0.01-0.02 0.019-0.03 0.028-6e-3 6e-3 -0.011 0.013-0.017 0.018-2.527 2.533-4.087 5.596-4.678 9.251l-147.6 352c-1.57 3.744-0.72 8.067 2.151 10.94 1.914 1.913 4.472 2.929 7.074 2.929 1.302 0 2.616-0.254 3.865-0.778l0.028-0.012 351.9-147.6c3.337-0.54 6.172-1.904 8.569-4.061 0.174-0.145 0.337-0.299 0.5-0.453 0.064-0.063 0.133-0.115 0.196-0.179 0.01-0.01 0.018-0.021 0.027-0.03 0.069-0.068 0.133-0.142 0.199-0.213 9.511-9.867 4.826-27.52-15.16-57.15-4.225-6.264-9.026-12.86-14.3-19.68zm-22.65 41.63c-21.74-15.4-47.4-37.58-72.27-62.44-24.86-24.86-47.04-50.52-62.44-72.26-14.9-21.02-18.91-31.76-19.97-36.41 4.65 1.058 15.38 5.072 36.41 19.97 3.118 2.209 6.322 4.57 9.586 7.045-0.701 0.722-1.393 1.451-2.106 2.164-3.905 3.905-3.905 10.24 0 14.14 1.953 1.952 4.512 2.929 7.071 2.929s5.119-0.977 7.071-2.929c1.256-1.256 2.493-2.529 3.716-3.814 15.17 12.54 31.21 27.18 46.93 42.9 13.52 13.52 26.23 27.27 37.5 40.5-1.806 1.003-3.611 2.023-5.416 3.065-4.783 2.762-6.422 8.878-3.66 13.66 1.852 3.208 5.213 5.002 8.67 5.002 1.696 0 3.416-0.433 4.99-1.342 2.776-1.604 5.554-3.143 8.331-4.646 4.345 5.518 8.377 10.88 12.02 16.02 14.9 21.02 18.91 31.76 19.97 36.41-4.652-1.059-15.39-5.073-36.41-19.97z"/>
   <path d="m373.4 154.7c1.953 1.952 4.512 2.929 7.071 2.929 2.56 0 5.118-0.977 7.071-2.929 22.34-22.34 58.54-32.58 84.97-34.72 5.505-0.444 9.607-5.268 9.163-10.77-0.445-5.505-5.258-9.591-10.77-9.163-29.97 2.419-71.33 14.33-97.5 40.51-3.905 3.905-3.905 10.24 0 14.14z"/>
   <path d="m504.6 102c-0.283-0.076-0.571-0.151-0.862-0.224-5.359-1.336-10.78 1.929-12.12 7.288-1.334 5.359 1.929 10.79 7.288 12.12l0.511 0.132c0.868 0.233 1.74 0.345 2.598 0.345 4.414 0 8.454-2.945 9.652-7.411 1.431-5.334-1.732-10.82-7.067-12.25z"/>
   <path d="m73.5 83.62h10v10c0 5.522 4.477 10 10 10s10-4.478 10-10v-10h10c5.523 0 10-4.478 10-10s-4.477-10-10-10h-10v-10c0-5.522-4.477-10-10-10s-10 4.478-10 10v10h-10c-5.523 0-10 4.478-10 10 0 5.523 4.477 10 10 10z"/>
   <path d="m307.5 180.6h10v9.999c0 5.523 4.478 10 10 10 5.523 0 10-4.477 10-10v-9.999h9.999c5.522 0 10-4.478 10-10s-4.478-10-10-10h-9.999v-10c0-5.522-4.477-10-10-10-5.522 0-10 4.478-10 10v10h-10c-5.522 0-10 4.478-10 10 0 5.523 4.478 10 10 10z"/>
   <path d="m446.5 417.6h-10v-10c0-5.522-4.478-10-10-10s-10 4.478-10 10v10h-10c-5.522 0-10 4.478-10 10s4.478 10 10 10h10v10c0 5.522 4.478 10 10 10s10-4.478 10-10v-10h10c5.522 0 10-4.478 10-10s-4.477-10-10-10z"/>
   <path d="m390 60c16.54 0 30-13.46 30-30s-13.46-30-30-30-30 13.46-30 30 13.46 30 30 30zm0-40c5.514 0 10 4.486 10 10s-4.486 10-10 10-10-4.486-10-10 4.486-10 10-10z"/>
   <path d="m452.5 173.6c-16.54 0-30 13.46-30 30s13.46 30 30 30 30-13.46 30-30-13.46-30-30-30zm0 40c-5.514 0-10-4.486-10-10s4.486-10 10-10 10 4.486 10 10-4.486 10-10 10z"/>
   <path d="m198.5 95.62c16.54 0 30-13.46 30-30s-13.46-30-30-30-30 13.46-30 30 13.46 30 30 30zm0-40c5.514 0 10 4.486 10 10s-4.486 10-10 10-10-4.486-10-10c0-5.513 4.486-10 10-10z"/>
   <path d="m449.2 294.1c0-5.508-4.492-10-10-10s-10 4.492-10 10 4.492 10 10 10 10-4.493 10-10z"/>
   <path d="m335.2 95.06c5.508 0 10-4.492 10-10s-4.492-10-10-10-10 4.492-10 10c1e-3 5.507 4.493 10 10 10z"/>
   <path d="m469.2 359.1c-5.508 0-10 4.493-10 10s4.493 10 10 10c5.507 0 10-4.492 10-10s-4.493-10-10-10z"/>
   <path d="m139.2 30c5.508 0 10-4.492 10-10s-4.492-10-10-10-10 4.492-10 10 4.492 10 10 10z"/>
  </g>
 </g>
</svg>
