<?xml version="1.0" encoding="UTF-8"?>
<svg width="24" height="24" enable-background="new 0 0 24 24" version="1.1" viewBox="0 0 24 24" xmlns="http://www.w3.org/2000/svg" xmlns:cc="http://creativecommons.org/ns#" xmlns:dc="http://purl.org/dc/elements/1.1/" xmlns:rdf="http://www.w3.org/1999/02/22-rdf-syntax-ns#">
 <metadata>
  <rdf:RDF>
   <cc:Work rdf:about="">
    <dc:format>image/svg+xml</dc:format>
    <dc:type rdf:resource="http://purl.org/dc/dcmitype/StillImage"/>
    <dc:title/>
   </cc:Work>
  </rdf:RDF>
 </metadata>
 <g>
  <rect width="24" height="24" fill="#d50065"/>
  <path d="m2 12v10h10v-7.7871l-2.2129-2.2129h-7.7871zm2.5 1.5a1 1 0 0 1 1 1 1 1 0 0 1-1 1 1 1 0 0 1-1-1 1 1 0 0 1 1-1zm5 0a1 1 0 0 1 1 1 1 1 0 0 1-1 1 1 1 0 0 1-1-1 1 1 0 0 1 1-1zm-2.5 2.5a1 1 0 0 1 1 1 1 1 0 0 1-1 1 1 1 0 0 1-1-1 1 1 0 0 1 1-1zm-2.5 2.5a1 1 0 0 1 1 1 1 1 0 0 1-1 1 1 1 0 0 1-1-1 1 1 0 0 1 1-1zm5 0a1 1 0 0 1 1 1 1 1 0 0 1-1 1 1 1 0 0 1-1-1 1 1 0 0 1 1-1z" fill="#ffdd80" fill-rule="evenodd" stroke-width="1.2022"/>
  <path d="m14.93 2-7.0723 7.0703 7.0723 7.0723 7.0703-7.0723-7.0703-7.0703zm-0.029297 2.5352a1 1 0 0 1 0.73633 0.29297 1 1 0 0 1 0 1.4141 1 1 0 0 1-1.4141 0 1 1 0 0 1 0-1.4141 1 1 0 0 1 0.67774-0.29297zm0 3.5371a1 1 0 0 1 0.73633 0.29102 1 1 0 0 1 0 1.4141 1 1 0 0 1-1.4141 0 1 1 0 0 1 0-1.4141 1 1 0 0 1 0.67774-0.29102zm0 3.5352a1 1 0 0 1 0.73633 0.29297 1 1 0 0 1 0 1.4141 1 1 0 0 1-1.4141 0 1 1 0 0 1 0-1.4141 1 1 0 0 1 0.67774-0.29297z" fill="#ffdd80" fill-rule="evenodd" stroke-width="1.2022"/>
 </g>
</svg>
